<?xml version="1.0" encoding="UTF-8"?>
<!DOCTYPE svg PUBLIC "-//W3C//DTD SVG 1.1//EN" "http://www.w3.org/Graphics/SVG/1.1/DTD/svg11.dtd">
<!-- Creator: CorelDRAW X8 -->
<svg xmlns="http://www.w3.org/2000/svg" xml:space="preserve" width="1cm" height="0.39388cm" version="1.1" style="shape-rendering:geometricPrecision; text-rendering:geometricPrecision; image-rendering:optimizeQuality; fill-rule:evenodd; clip-rule:evenodd"
viewBox="0 0 1099 433"
 xmlns:xlink="http://www.w3.org/1999/xlink">
 <defs>
  <style type="text/css">
   <![CDATA[
    .str0 {stroke:#FEFEFE;stroke-width:2.51743}
    .fil0 {fill:#050505}
    .fil4 {fill:#909090}
    .fil5 {fill:#979797}
    .fil6 {fill:#C6C6C6}
    .fil1 {fill:gainsboro}
    .fil2 {fill:#F9F9F9}
    .fil3 {fill:#FCFCFC}
   ]]>
  </style>
 </defs>
 <g id="Camada_x0020_1">
  <metadata id="CorelCorpID_0Corel-Layer"/>
  <g id="_1911679555808">
   <path class="fil0 str0" d="M11 191c-1,25 -10,90 -2,111 14,-14 4,-47 31,-68 24,-19 49,-12 68,7 46,46 -6,47 158,47 31,-2 54,-10 79,-21 20,-9 50,-30 54,-54 -6,-5 -7,-5 -19,-6 -47,-5 -115,-6 -163,-10l-149 -2c-23,2 -22,9 -35,15 -2,-33 23,-31 73,-31 35,0 69,0 104,1 66,2 133,9 198,9 7,-2 13,-20 20,-27 11,-11 17,-12 30,-20 -11,-9 -80,-4 -101,-4l-325 -2c-10,18 -17,31 -21,55z"/>
   <path class="fil0 str0" d="M665 156c34,-3 73,5 99,18 14,6 75,31 79,41 -19,2 -163,1 -177,-12 -16,-14 -12,-33 -1,-47zm-185 94c0,-28 19,-56 43,-69 112,-64 184,81 183,116l-2 9c-1,0 -1,2 -2,2 -9,-4 -3,2 -7,-9 -7,-19 -3,-31 -27,-68 -33,-51 -89,-74 -145,-43 -27,15 -35,39 -43,62zm-135 33c-1,0 -2,0 -2,1 0,1 -1,1 -2,1 -23,13 -73,11 -87,17 3,7 20,5 28,7l151 28c22,3 43,10 65,11 1,-42 -23,-153 80,-153 84,-1 93,98 104,131 44,8 42,-58 75,-68 25,-7 114,-1 146,-2 -9,-28 -71,-66 -101,-79 -39,-17 -83,-26 -126,-31 -2,0 -8,-1 -9,-1l-12 -4c-19,6 -152,-15 -203,20 -36,25 -40,114 -107,122z"/>
   <path class="fil1 str0" d="M140 293c27,9 194,45 235,50l85 11c-10,9 -54,5 -75,5 -62,0 -177,4 -229,-1 -6,-17 -16,-44 -16,-65zm515 -152l12 4c1,0 7,1 9,1 43,5 87,14 126,31 30,13 92,51 101,79 -32,1 -121,-5 -146,2 -33,10 -31,76 -75,68 -11,-33 -20,-132 -104,-131 -103,0 -79,111 -80,153 -22,-1 -43,-8 -65,-11l-151 -28c-8,-2 -25,0 -28,-7 14,-6 64,-4 87,-17 1,0 2,0 2,-1 0,-1 1,-1 2,-1 -15,-2 -26,4 -41,7 -15,2 -30,4 -46,4 16,1 2,1 8,-6 -164,0 -112,-1 -158,-47 -19,-19 -44,-26 -68,-7 -27,21 -17,54 -31,68 -8,-21 1,-86 2,-111 -14,12 -9,87 -8,101 5,56 8,8 13,42 2,8 1,14 2,21 3,15 7,16 10,19 -4,-33 -16,-67 6,-108 42,-79 115,10 98,88 -4,19 -8,33 -17,45 -13,18 -21,21 -47,20 0,1 1,5 2,7 13,0 25,-4 30,-4 11,0 14,0 27,-1 0,-1 1,-2 1,-2 0,-10 -1,-4 -4,-5 -3,2 -1,5 -15,4 7,-15 11,5 31,-51l23 0c-1,9 -3,10 -5,21 4,-3 9,1 9,-23l175 0c14,1 1,-3 11,7l4 3c2,-11 -4,-5 5,-8l95 0c-2,12 -2,6 -8,16 11,-2 3,0 10,-2 2,-7 2,-6 2,-16l36 0 2 -7c0,-1 1,-1 1,-2l4 -19c-3,3 -3,4 -1,10 5,15 1,5 7,10 -4,-54 -5,-90 27,-121 64,-64 154,30 123,128 -5,18 -14,35 -29,47 -22,19 -34,17 -63,13 2,6 -1,8 20,8 7,0 18,-2 22,-3 13,-2 27,6 38,-6l-17 1c5,-11 27,-14 40,-59l18 3c6,1 4,0 7,2 -2,9 -2,6 -3,16l3 -4c0,0 11,-8 3,-19 28,0 49,2 77,2 25,0 51,0 76,0 3,18 17,14 18,14 -15,-29 -34,-19 -82,-20 -29,0 -72,1 -100,-3 -4,-9 -5,-6 -4,-18 42,0 44,-31 61,-56 16,-23 69,-17 102,-17 12,0 47,0 57,3 17,4 23,18 39,19 20,3 98,1 116,-2 3,-6 4,-10 6,-18l-2 -6c0,-1 2,-6 2,-7 -16,11 -2,17 -25,20 -36,5 -83,7 -111,-11 -18,-11 -49,-94 -217,-124 -93,-17 -96,-4 -162,-10 1,2 1,6 2,8 68,-9 86,2 139,3 -2,1 0,1 -7,1 -11,1 -12,-3 -29,0z"/>
   <path class="fil0 str0" d="M550 129c66,6 69,-7 162,10 168,30 199,113 217,124 28,18 75,16 111,11 23,-3 9,-9 25,-20 2,-14 28,-6 11,-65l-6 15c-1,3 -2,10 -4,13 -4,11 -9,13 -19,18 -15,8 -132,22 -150,-41 -10,-33 25,-11 48,-24 -9,-24 -128,-51 -160,-60 21,0 20,3 36,5 39,5 136,33 167,51 14,8 58,8 79,8 -9,-34 -122,-66 -164,-70 -15,-1 -24,-3 -37,-4 -12,-2 -25,-2 -38,-3 -21,-4 -54,0 -78,0 -27,1 -54,1 -81,1 -19,-1 -148,-4 -153,-2 6,6 33,28 34,33z"/>
   <path class="fil0 str0" d="M764 316c-2,-16 10,-30 17,-39 51,-2 68,-2 120,1 1,28 -28,35 -51,38 -22,3 -62,3 -86,0zm301 -49c-2,8 -3,12 -6,18 -18,3 -96,5 -116,2 -16,-1 -22,-15 -39,-19 -10,-3 -45,-3 -57,-3 -33,0 -86,-6 -102,17 -17,25 -19,56 -61,56 -1,12 0,9 4,18 28,4 71,3 100,3 48,1 67,-9 82,20 7,2 8,4 16,8 5,2 14,5 19,6 41,6 103,-14 102,-50 -18,-1 -88,5 -93,2 8,-4 50,-11 62,-12 33,0 43,1 71,8 27,7 74,-38 38,-89 -13,1 -12,8 -20,15z"/>
   <path class="fil0 str0" d="M570 281c46,-18 60,77 20,87 -45,12 -64,-69 -20,-87zm-6 -32l16 -3c17,-1 29,4 41,18 33,35 31,111 -15,135 -8,4 -16,6 -26,5 -11,-2 6,1 -4,-1l-4 -2c11,-6 14,1 29,-7 40,-22 44,-88 16,-123 -21,-27 -33,-17 -49,-21l-4 -1zm-54 108c2,2 7,17 9,21 4,8 7,12 13,20 8,11 21,22 36,26 29,4 41,6 63,-13 15,-12 24,-29 29,-47 31,-98 -59,-192 -123,-128 -32,31 -31,67 -27,121z"/>
   <path class="fil0 str0" d="M48 123c140,2 94,7 112,-34 6,-14 12,-24 23,-32 15,-11 67,-24 92,-25 -1,12 -10,35 -13,48 -4,13 -12,36 -11,49l28 -1c3,-10 3,-33 5,-46 2,-14 5,-30 10,-41 12,-24 61,-10 80,-2 48,20 84,58 113,91l47 1c-2,-8 -10,-13 -22,-22 -60,-49 -131,-106 -216,-98 -56,6 -96,13 -148,34 -23,10 -40,20 -57,31 -10,7 -43,31 -43,47z"/>
   <path class="fil0 str0" d="M365 5c12,8 47,18 99,53 6,5 23,18 30,20 -5,-16 -15,-22 -8,-43 42,-15 112,46 158,52 32,4 33,-38 98,-8 21,10 18,11 46,9 -7,-14 -162,-69 -181,-74 -26,-6 -224,-19 -242,-9z"/>
   <path class="fil0 str0" d="M63 297c4,-2 11,-9 21,4 14,16 13,59 -5,66 -27,10 -45,-51 -16,-70zm1 -33c5,-3 -5,0 7,-3 3,0 4,0 7,0 6,0 7,2 11,4 34,22 44,93 8,127 -2,3 -7,6 -9,6 -21,3 -6,1 -12,-4 45,-10 42,-101 8,-123 -7,-5 -17,-5 -18,-6 0,-1 -1,-1 -2,-1zm-36 110c3,4 10,21 16,28 5,5 15,14 24,17 26,1 34,-2 47,-20 9,-12 13,-26 17,-45 17,-78 -56,-167 -98,-88 -22,41 -10,75 -6,108z"/>
   <path class="fil0 str0" d="M385 359c21,0 65,4 75,-5l-85 -11c-41,-5 -208,-41 -235,-50 0,21 10,48 16,65 52,5 167,1 229,1z"/>
   <path class="fil2 str0" d="M665 156c-11,14 -15,33 1,47 14,13 158,14 177,12 -4,-10 -65,-35 -79,-41 -26,-13 -65,-21 -99,-18z"/>
   <path class="fil3 str0" d="M764 316c24,3 64,3 86,0 23,-3 52,-10 51,-38 -52,-3 -69,-3 -120,-1 -7,9 -19,23 -17,39z"/>
   <path class="fil3 str0" d="M570 281c-44,18 -25,99 20,87 40,-10 26,-105 -20,-87z"/>
   <path class="fil0 str0" d="M346 118c14,9 92,7 113,6 -5,-29 -63,-48 -104,-45 -8,10 -12,23 -9,39z"/>
   <path class="fil4 str0" d="M480 250c8,-23 16,-47 43,-62 56,-31 112,-8 145,43 24,37 20,49 27,68 4,11 -2,5 7,9 1,0 1,-2 2,-2l2 -9c1,-35 -71,-180 -183,-116 -24,13 -43,41 -43,69z"/>
   <path class="fil2 str0" d="M63 297c-29,19 -11,80 16,70 18,-7 19,-50 5,-66 -10,-13 -17,-6 -21,-4z"/>
   <path class="fil0 str0" d="M357 375c14,5 17,16 43,18 11,0 19,0 28,-3 7,-2 15,-6 21,-7 6,-10 6,-4 8,-16l-95 0c-9,3 -3,-3 -5,8z"/>
   <path class="fil5 str0" d="M564 249l4 1c16,4 28,-6 49,21 28,35 24,101 -16,123 -15,8 -18,1 -29,7l4 2c10,2 -7,-1 4,1 10,1 18,-1 26,-5 46,-24 48,-100 15,-135 -12,-14 -24,-19 -41,-18l-16 3z"/>
   <path class="fil6 str0" d="M64 264c1,0 2,0 2,1 1,1 11,1 18,6 34,22 37,113 -8,123 6,5 -9,7 12,4 2,0 7,-3 9,-6 36,-34 26,-105 -8,-127 -4,-2 -5,-4 -11,-4 -3,0 -4,0 -7,0 -12,3 -2,0 -7,3z"/>
   <path class="fil0 str0" d="M648 423c2,-6 6,-3 14,-6 3,-2 9,-6 12,-9 10,-7 13,-14 19,-22 1,-10 1,-7 3,-16 -3,-2 -1,-1 -7,-2l-18 -3c-13,45 -35,48 -40,59l17 -1z"/>
   <path class="fil0 str0" d="M124 414c18,3 27,-22 34,-26 2,-11 4,-12 5,-21l-23 0c-20,56 -24,36 -31,51 14,1 12,-2 15,-4z"/>
  </g>
 </g>
</svg>
